<svg width="1200" height="630" viewBox="0 0 1200 630" fill="none" xmlns="http://www.w3.org/2000/svg">
  <defs>
    <linearGradient id="bg-gradient" x1="0%" y1="0%" x2="100%" y2="100%">
      <stop offset="0%" style="stop-color:#0a1628"/>
      <stop offset="100%" style="stop-color:#1a2234"/>
    </linearGradient>
    <linearGradient id="accent-gradient" x1="0%" y1="0%" x2="100%" y2="0%">
      <stop offset="0%" style="stop-color:#0891b2"/>
      <stop offset="100%" style="stop-color:#6ee6ff"/>
    </linearGradient>
  </defs>

  <!-- Background -->
  <rect width="1200" height="630" fill="url(#bg-gradient)"/>

  <!-- Grid pattern -->
  <g opacity="0.1">
    <line x1="200" y1="0" x2="200" y2="630" stroke="#6ee6ff" stroke-width="1"/>
    <line x1="400" y1="0" x2="400" y2="630" stroke="#6ee6ff" stroke-width="1"/>
    <line x1="600" y1="0" x2="600" y2="630" stroke="#6ee6ff" stroke-width="1"/>
    <line x1="800" y1="0" x2="800" y2="630" stroke="#6ee6ff" stroke-width="1"/>
    <line x1="1000" y1="0" x2="1000" y2="630" stroke="#6ee6ff" stroke-width="1"/>
    <line x1="0" y1="126" x2="1200" y2="126" stroke="#6ee6ff" stroke-width="1"/>
    <line x1="0" y1="252" x2="1200" y2="252" stroke="#6ee6ff" stroke-width="1"/>
    <line x1="0" y1="378" x2="1200" y2="378" stroke="#6ee6ff" stroke-width="1"/>
    <line x1="0" y1="504" x2="1200" y2="504" stroke="#6ee6ff" stroke-width="1"/>
  </g>

  <!-- Central icon - Family/Building -->
  <g transform="translate(500, 215)">
    <!-- Building outline -->
    <rect x="50" y="80" width="100" height="120" rx="4" stroke="url(#accent-gradient)" stroke-width="3" fill="none"/>
    <rect x="70" y="100" width="20" height="25" rx="2" stroke="#6ee6ff" stroke-width="2" fill="none"/>
    <rect x="110" y="100" width="20" height="25" rx="2" stroke="#6ee6ff" stroke-width="2" fill="none"/>
    <rect x="70" y="140" width="20" height="25" rx="2" stroke="#6ee6ff" stroke-width="2" fill="none"/>
    <rect x="110" y="140" width="20" height="25" rx="2" stroke="#6ee6ff" stroke-width="2" fill="none"/>
    <rect x="85" y="170" width="30" height="30" rx="2" stroke="#0891b2" stroke-width="2" fill="none"/>

    <!-- Roof/Triangle -->
    <path d="M40 80 L100 30 L160 80" stroke="url(#accent-gradient)" stroke-width="3" fill="none"/>

    <!-- Connected nodes (network) -->
    <circle cx="0" cy="100" r="15" stroke="#0891b2" stroke-width="2" fill="none"/>
    <circle cx="200" cy="100" r="15" stroke="#0891b2" stroke-width="2" fill="none"/>
    <circle cx="40" cy="20" r="12" stroke="#6ee6ff" stroke-width="2" fill="none"/>
    <circle cx="160" cy="20" r="12" stroke="#6ee6ff" stroke-width="2" fill="none"/>

    <!-- Connection lines -->
    <line x1="15" y1="100" x2="50" y2="100" stroke="#0891b2" stroke-width="1.5" stroke-dasharray="4 4"/>
    <line x1="150" y1="100" x2="185" y2="100" stroke="#0891b2" stroke-width="1.5" stroke-dasharray="4 4"/>
    <line x1="52" y1="28" x2="80" y2="55" stroke="#6ee6ff" stroke-width="1.5" stroke-dasharray="4 4"/>
    <line x1="148" y1="28" x2="120" y2="55" stroke="#6ee6ff" stroke-width="1.5" stroke-dasharray="4 4"/>
  </g>

  <!-- Decorative elements -->
  <circle cx="150" cy="100" r="60" stroke="#0891b2" stroke-width="1" fill="none" opacity="0.3"/>
  <circle cx="1050" cy="530" r="80" stroke="#6ee6ff" stroke-width="1" fill="none" opacity="0.2"/>

  <!-- Accent line at bottom -->
  <rect x="0" y="620" width="1200" height="10" fill="url(#accent-gradient)"/>
</svg>